<svg width="109" height="51" viewBox="0 0 109 51" fill="none" xmlns="http://www.w3.org/2000/svg">
<path d="M1.00009 11.5C1.00009 5.97715 5.47724 1.5 11.0001 1.5H98.0001C103.523 1.5 108 5.97715 108 11.5V38.5C108 44.0229 103.523 48.5 98.0001 48.5H11.0001C5.47724 48.5 1.00009 44.0228 1.00009 38.5V11.5Z" fill="#555555"/>
<path d="M11.0001 1.75H98.0001C103.385 1.75 107.75 6.11522 107.75 11.5V38.5C107.75 43.8848 103.385 48.25 98.0001 48.25H11.0001C5.61532 48.25 1.25009 43.8848 1.25009 38.5V11.5C1.25009 6.11522 5.61532 1.75 11.0001 1.75Z" stroke="#C6C6C6" stroke-opacity="0.4" stroke-width="0.5"/>
<path d="M18.0001 4.5C18.0001 3.94772 18.4478 3.5 19.0001 3.5H90.0001C90.5524 3.5 91.0001 3.94772 91.0001 4.5V45.5C91.0001 46.0523 90.5524 46.5 90.0001 46.5H19.0001C18.4478 46.5 18.0001 46.0523 18.0001 45.5V4.5Z" fill="#4B4B4B"/>
<path d="M22.0001 7C22.0001 6.72386 22.2239 6.5 22.5001 6.5H86.5001C86.7762 6.5 87.0001 6.72386 87.0001 7V43C87.0001 43.2761 86.7762 43.5 86.5001 43.5H22.5001C22.224 43.5 22.0001 43.2761 22.0001 43V7Z" fill="#D9D9D9" fill-opacity="0.5"/>
<path d="M10.0001 10.75C12.0712 10.75 13.7501 12.4289 13.7501 14.5C13.7501 16.5711 12.0712 18.25 10.0001 18.25C7.92902 18.25 6.25009 16.5711 6.25009 14.5C6.25009 12.4289 7.92902 10.75 10.0001 10.75Z" fill="#FDFDFD" stroke="#C5C5C5" stroke-width="0.5"/>
<path d="M99.0001 25.75C101.071 25.75 102.75 27.4289 102.75 29.5C102.75 31.5711 101.071 33.25 99.0001 33.25C96.929 33.25 95.2501 31.5711 95.2501 29.5C95.2501 27.4289 96.929 25.75 99.0001 25.75Z" fill="#FDFDFD" stroke="#C5C5C5" stroke-width="0.5"/>
<rect x="14.0001" y="6.5" width="3" height="1" rx="0.3" fill="#D9D9D9"/>
<path d="M11.0001 25V28C11.0001 28.2761 11.2239 28.5 11.5001 28.5H14.5001C14.7762 28.5 15.0001 28.7239 15.0001 29V31C15.0001 31.2761 14.7762 31.5 14.5001 31.5H11.5001C11.2239 31.5 11.0001 31.7239 11.0001 32V35C11.0001 35.2761 10.7762 35.5 10.5001 35.5H8.50009C8.22395 35.5 8.00009 35.2761 8.00009 35V32C8.00009 31.7239 7.77623 31.5 7.50009 31.5H4.50009C4.22395 31.5 4.00009 31.2761 4.00009 31V29C4.00009 28.7239 4.22395 28.5 4.50009 28.5H7.50009C7.77623 28.5 8.00009 28.2761 8.00009 28V25C8.00009 24.7239 8.22395 24.5 8.50009 24.5H10.5001C10.7762 24.5 11.0001 24.7239 11.0001 25Z" fill="#D9D9D9"/>
<path d="M94.9092 5.7V6.39091C94.9092 6.50137 94.9987 6.59091 95.1092 6.59091H95.8001C95.9105 6.59091 96.0001 6.68045 96.0001 6.79091V7.20909C96.0001 7.31955 95.9105 7.40909 95.8001 7.40909H95.1092C94.9987 7.40909 94.9092 7.49863 94.9092 7.60909V8.3C94.9092 8.41046 94.8196 8.5 94.7092 8.5H94.291C94.1805 8.5 94.091 8.41046 94.091 8.3V7.60909C94.091 7.49863 94.0015 7.40909 93.891 7.40909H93.2001C93.0896 7.40909 93.0001 7.31955 93.0001 7.20909V6.79091C93.0001 6.68045 93.0896 6.59091 93.2001 6.59091H93.891C94.0015 6.59091 94.091 6.50137 94.091 6.39091V5.7C94.091 5.58954 94.1805 5.5 94.291 5.5H94.7092C94.8196 5.5 94.9092 5.58954 94.9092 5.7Z" fill="#D9D9D9"/>
<path d="M9.00207 26.5039L10.0021 26.504L9.50207 25.502L9.00207 26.5039Z" fill="#C0C0C0"/>
<path d="M10.0004 33.4981L8.99997 33.498L9.50009 34.5L10.0004 33.4981Z" fill="#C0C0C0"/>
<path d="M13.0011 29.5049L13.0011 30.5049L14.0031 30.0049L13.0011 29.5049Z" fill="#C0C0C0"/>
<path d="M6.00001 30.5L6.00009 29.5L4.99766 29.9999L6.00001 30.5Z" fill="#C0C0C0"/>
<path d="M13.5001 0.5C7.50009 0.5 3.68492 1.72653 0.500092 7.5" stroke="#BABABA" stroke-linecap="round"/>
<path d="M96.0001 0.5C102 0.5 105.315 1.72653 108.5 7.5" stroke="#BABABA" stroke-linecap="round"/>
<circle cx="95.0001" cy="15.5" r="2" fill="#D9D9D9"/>
<path d="M101.5 11.531C101.5 12.6355 100.605 13.531 99.5001 13.531C98.3955 13.531 97.5001 12.6355 97.5001 11.531C97.5001 10.4264 98.3955 9.53098 99.5001 9.53098C100.605 9.53098 101.5 10.4264 101.5 11.531Z" fill="#D9D9D9"/>
<path d="M101.5 19.437C101.5 20.5416 100.605 21.437 99.5001 21.437C98.3955 21.437 97.5001 20.5416 97.5001 19.437C97.5001 18.3324 98.3955 17.437 99.5001 17.437C100.605 17.437 101.5 18.3324 101.5 19.437Z" fill="#D9D9D9"/>
<circle cx="95.0001" cy="40.5" r="1.85" fill="#D9D9D9" stroke="#868686" stroke-width="0.3"/>
<circle cx="104" cy="15.5" r="2" fill="#D9D9D9"/>
<path d="M13.5001 40.2C13.5001 40.0895 13.5896 40 13.7001 40H15.0001H16.3001C16.4105 40 16.5001 40.0895 16.5001 40.2V41V42.8C16.5001 42.9105 16.4105 43 16.3001 43H15.0001H13.7001C13.5896 43 13.5001 42.9105 13.5001 42.8V41V40.2Z" fill="#D9D9D9"/>
<g filter="url(#filter0_d_9_60)">
<path d="M14.0001 41.5C14.0001 40.9477 14.4478 40.5 15.0001 40.5C15.5524 40.5 16.0001 40.9477 16.0001 41.5C16.0001 42.0523 15.5524 42.5 15.0001 42.5C14.4478 42.5 14.0001 42.0523 14.0001 41.5Z" fill="#CFCFCF"/>
</g>
<defs>
<filter id="filter0_d_9_60" x="10.0001" y="40.5" width="10" height="10" filterUnits="userSpaceOnUse" color-interpolation-filters="sRGB">
<feFlood flood-opacity="0" result="BackgroundImageFix"/>
<feColorMatrix in="SourceAlpha" type="matrix" values="0 0 0 0 0 0 0 0 0 0 0 0 0 0 0 0 0 0 127 0" result="hardAlpha"/>
<feOffset dy="4"/>
<feGaussianBlur stdDeviation="2"/>
<feComposite in2="hardAlpha" operator="out"/>
<feColorMatrix type="matrix" values="0 0 0 0 0 0 0 0 0 0 0 0 0 0 0 0 0 0 0.25 0"/>
<feBlend mode="normal" in2="BackgroundImageFix" result="effect1_dropShadow_9_60"/>
<feBlend mode="normal" in="SourceGraphic" in2="effect1_dropShadow_9_60" result="shape"/>
</filter>
</defs>
</svg>
